<?xml version="1.0" encoding="UTF-8" standalone="no"?>
<!-- Created with Fritzing (http://www.fritzing.org/) -->

<svg
   xmlns:dc="http://purl.org/dc/elements/1.1/"
   xmlns:cc="http://creativecommons.org/ns#"
   xmlns:rdf="http://www.w3.org/1999/02/22-rdf-syntax-ns#"
   xmlns:svg="http://www.w3.org/2000/svg"
   xmlns="http://www.w3.org/2000/svg"
   xmlns:sodipodi="http://sodipodi.sourceforge.net/DTD/sodipodi-0.dtd"
   xmlns:inkscape="http://www.inkscape.org/namespaces/inkscape"
   version="1.2"
   x="0in"
   y="0in"
   width="45.365398"
   height="38.109001"
   viewBox="0 0 12.803121 10.755207"
   id="svg2"
   inkscape:version="0.91 r13725"
   sodipodi:docname="ft810cb_2x5_breadboard.svg">
  <metadata
     id="metadata31">
    <rdf:RDF>
      <cc:Work
         rdf:about="">
        <dc:format>image/svg+xml</dc:format>
        <dc:type
           rdf:resource="http://purl.org/dc/dcmitype/StillImage" />
        <dc:title />
      </cc:Work>
    </rdf:RDF>
  </metadata>
  <defs
     id="defs29" />
  <sodipodi:namedview
     pagecolor="#ffffff"
     bordercolor="#666666"
     borderopacity="1"
     objecttolerance="10"
     gridtolerance="10"
     guidetolerance="10"
     inkscape:pageopacity="0"
     inkscape:pageshadow="2"
     inkscape:window-width="1280"
     inkscape:window-height="961"
     id="namedview27"
     showgrid="false"
     inkscape:zoom="7.88"
     inkscape:cx="30.265701"
     inkscape:cy="25.566247"
     inkscape:window-x="-8"
     inkscape:window-y="48"
     inkscape:window-maximized="1"
     inkscape:current-layer="svg2"
     units="px" />
  <path
     inkscape:connector-curvature="0"
     style="fill:#1f7a34;stroke:none;stroke-width:0"
     d="m -0.03472764,0.01083322 0,10.72223978 12.80307664,0 0,-10.72223978 -12.80307664,0 z M 1.2870865,5.6784289 a 0.50800016,0.50800025 0 0 1 0,1.0158896 0.50800016,0.50800025 0 1 1 0,-1.0158896 z m 2.5399998,0 a 0.50800016,0.50800025 0 0 1 0,1.0158896 0.50800016,0.50800025 0 1 1 0,-1.0158896 z m 2.5399998,0 a 0.50800016,0.50800025 0 0 1 0,1.0158896 0.50800016,0.50800025 0 1 1 0,-1.0158896 z m 2.5399998,0 a 0.50800016,0.50800025 0 0 1 0,1.0158896 0.50800016,0.50800025 0 1 1 0,-1.0158896 z m 2.5400001,0 a 0.50800016,0.50800025 0 0 1 0,1.0158896 0.50800016,0.50800025 0 1 1 0,-1.0158896 z m -10.1599995,2.54 a 0.50799996,0.50800005 0 1 1 0,1.0158896 0.50799996,0.50800005 0 1 1 0,-1.0158896 z m 2.5399998,0 a 0.50799996,0.50800005 0 0 1 0,1.0158896 0.50799996,0.50800005 0 1 1 0,-1.0158896 z m 2.5399998,0 a 0.50799996,0.50800005 0 0 1 0,1.0158896 0.50799996,0.50800005 0 1 1 0,-1.0158896 z m 2.5399998,0 a 0.50799996,0.50800005 0 0 1 0,1.0158896 0.50799996,0.50800005 0 1 1 0,-1.0158896 z m 2.5400001,0 a 0.50799996,0.50800005 0 0 1 0,1.0158896 0.50799996,0.50800005 0 1 1 0,-1.0158896 z"
     id="path5" />
  <ellipse
     style="fill:none;stroke:#9a916c;stroke-width:0.43180001"
     cy="1.2868359"
     cx="-8.7265663"
     connectorname="1"
     id="connector0pin"
     transform="matrix(0,-1,1,0,0,0)"
     rx="0.72390008"
     ry="0.72389996" />
  <ellipse
     style="fill:none;stroke:#9a916c;stroke-width:0.43180001"
     cy="1.2868359"
     cx="-6.1865668"
     connectorname="2"
     id="connector1pin"
     transform="matrix(0,-1,1,0,0,0)"
     rx="0.72390008"
     ry="0.72389996" />
  <ellipse
     style="fill:none;stroke:#9a916c;stroke-width:0.43180001"
     cy="3.8268356"
     cx="-8.7265663"
     connectorname="3"
     id="connector2pin"
     transform="matrix(0,-1,1,0,0,0)"
     rx="0.72390008"
     ry="0.72389996" />
  <ellipse
     style="fill:none;stroke:#9a916c;stroke-width:0.43180001"
     cy="3.8268356"
     cx="-6.1865668"
     connectorname="4"
     id="connector3pin"
     transform="matrix(0,-1,1,0,0,0)"
     rx="0.72390008"
     ry="0.72389996" />
  <ellipse
     style="fill:none;stroke:#9a916c;stroke-width:0.43180001"
     cy="6.3668356"
     cx="-8.7265663"
     connectorname="5"
     id="connector4pin"
     transform="matrix(0,-1,1,0,0,0)"
     rx="0.72390008"
     ry="0.72389996" />
  <ellipse
     style="fill:none;stroke:#9a916c;stroke-width:0.43180001"
     cy="6.3668356"
     cx="-6.1865668"
     connectorname="6"
     id="connector5pin"
     transform="matrix(0,-1,1,0,0,0)"
     rx="0.72390008"
     ry="0.72389996" />
  <ellipse
     style="fill:none;stroke:#9a916c;stroke-width:0.43180001"
     cy="8.9068356"
     cx="-8.7265663"
     connectorname="7"
     id="connector6pin"
     transform="matrix(0,-1,1,0,0,0)"
     rx="0.72390008"
     ry="0.72389996" />
  <ellipse
     style="fill:none;stroke:#9a916c;stroke-width:0.43180001"
     cy="8.9068356"
     cx="-6.1865668"
     connectorname="8"
     id="connector7pin"
     transform="matrix(0,-1,1,0,0,0)"
     rx="0.72390008"
     ry="0.72389996" />
  <ellipse
     style="fill:none;stroke:#9a916c;stroke-width:0.43180001"
     cy="11.446836"
     cx="-8.7265663"
     connectorname="9"
     id="connector8pin"
     transform="matrix(0,-1,1,0,0,0)"
     rx="0.72390008"
     ry="0.72389996" />
  <ellipse
     style="fill:none;stroke:#9a916c;stroke-width:0.43180001"
     cy="11.446836"
     cx="-6.1865668"
     connectorname="10"
     id="connector9pin"
     transform="matrix(0,-1,1,0,0,0)"
     rx="0.72390008"
     ry="0.72389996" />
  <line
     style="stroke:#f8f8f8;stroke-width:0.17606379;stroke-linecap:round"
     id="line19"
     y2="4.2600064"
     x2="0.066836067"
     y1="10.641343"
     x1="0.066836067"
     class="other" />
  <line
     style="stroke:#f8f8f8;stroke-width:0.2032;stroke-linecap:round"
     id="line21"
     y2="4.2659898"
     x2="12.666835"
     y1="4.2659898"
     x1="0.066836067"
     class="other" />
  <line
     style="stroke:#f8f8f8;stroke-width:0.17679296;stroke-linecap:round"
     id="line23"
     y2="10.676516"
     x2="12.666835"
     y1="4.2422137"
     x1="12.666835"
     class="other" />
  <line
     style="stroke:#f8f8f8;stroke-width:0.2032;stroke-linecap:round"
     id="line25"
     y2="10.615658"
     x2="0.066836067"
     y1="10.615658"
     x1="12.666835"
     class="other" />
  <g
     style="font-size:0.70555562px;font-family:OCRA;text-align:center;text-anchor:middle;fill:#ffffff"
     id="text_1_">
    <path
       d="m 0.62172022,2.9200883 0,-0.1474612 0.11782779,0 q 0.11782779,0 0.12065001,7.056e-4 0.0218722,0.00423 0.0268111,0.0254 7.0556e-4,0.00353 7.0556e-4,0.00776 0,0.021872 -0.0197556,0.031044 -0.003528,0.00141 -0.007761,0.00212 -0.002822,7.056e-4 -0.0867833,7.056e-4 l -0.0846667,0 0,0.079728 0,0.079728 0.0684389,0 q 0.0719667,0 0.0804333,0.00212 0.0352778,0.00917 0.0465667,0.043039 0.002822,0.00776 0.003528,0.014817 l 7.0555e-4,0.090311 0,0.086078 -0.001411,0.00423 q -0.003528,0.016933 -0.0141111,0.029633 -0.0141111,0.016933 -0.0352778,0.022578 -0.008467,0.00212 -0.0931333,0.00212 -0.0811389,0 -0.0881944,-7.056e-4 -0.009878,-0.00141 -0.01905,-0.00423 l -0.0656167,-0.028222 q -0.009172,-0.00564 -0.0134055,-0.014817 -0.004233,-0.00847 -0.002822,-0.01905 7.0556e-4,-0.00494 0.003528,-0.00988 0.009172,-0.019756 0.0310445,-0.01905 0.004939,0 0.009172,0.00141 0.002822,0.00141 0.0310445,0.013406 0.0275167,0.011994 0.0303389,0.0127 0.002117,7.056e-4 0.0811389,7.056e-4 l 0.0790222,0 0,-0.079728 0,-0.079728 -0.0994834,0 -0.0994833,0 0,-0.1474611 z"
       style="font-size:0.70555562px;font-family:OCRA;text-align:center;text-anchor:middle;fill:#ffffff"
       id="path3453" />
    <path
       d="m 1.0872767,2.7733327 0.014817,7.055e-4 q 0.00212,7.056e-4 0.00635,0.00212 0.00988,0.00494 0.014817,0.015522 0.00353,0.00706 0.00353,0.031045 l 0,0.034572 7.056e-4,0.05715 0.049389,0.1262945 0.049389,0.1262944 q 0,-7.055e-4 0.049389,-0.127 l 0.049389,-0.1262944 0,-0.055033 q 0,-0.057856 0.00212,-0.064206 0.00212,-0.00564 0.00847,-0.011289 0.00564,-0.00635 0.011994,-0.00847 0.00847,-0.00282 0.016933,-0.00141 0.00494,7.055e-4 0.00917,0.00282 0.010583,0.00494 0.015522,0.015522 0.00282,0.00706 0.00353,0.030339 l 0,0.041628 0,0.062794 -0.067733,0.1742722 q -0.067733,0.1735667 -0.069144,0.1756833 -0.00212,0.00494 -0.00706,0.00917 -0.016228,0.015522 -0.036689,0.00635 l -0.00988,-0.00776 q -0.00423,-0.00353 -0.00706,-0.00917 -7.055e-4,-0.00282 -0.066322,-0.1700389 l -0.067028,-0.1728611 -0.00212,-0.00564 0,-0.061383 q 0,-0.064205 0.00212,-0.070556 0.00212,-0.00564 0.00776,-0.011289 0.00776,-0.00776 0.017639,-0.00988 z"
       style="font-size:0.70555562px;font-family:OCRA;text-align:center;text-anchor:middle;fill:#ffffff"
       id="path3455" />
  </g>
  <g
     style="font-size:0.70555556px;font-family:OCRA;text-align:center;text-anchor:middle;fill:#ffffff"
     id="text_1_-1">
    <path
       d="m 0.51480519,0.95616295 q 0.005644,-7.0556e-4 0.0606778,-7.0556e-4 l 0.0578555,7.0556e-4 q 0.0218722,0.004233 0.0268111,0.0254 7.0556e-4,0.003528 7.0556e-4,0.007761 0,0.0211666 -0.0204611,0.0310444 -0.005644,0.00282 -0.0500945,0.00282 l -0.0127,0 q -0.0585611,0 -0.0649111,0.00353 -0.00635,0.00282 -0.01905,0.01905 -0.00635,0.00847 -0.0373944,0.047978 -0.0465667,0.059972 -0.0486833,0.062794 -0.007056,0.010583 -0.0105833,0.0254 l -7.0555e-4,0.00423 0,0.098072 q 0,0.097367 7.0555e-4,0.1001889 0.004233,0.015522 0.0183445,0.021872 0.00635,0.00353 0.0324556,0.00353 0.004939,0 0.0472722,0 0.0733778,0 0.0797278,-0.00353 0.0105833,-0.00494 0.0155222,-0.015522 0.003528,-0.00635 0.003528,-0.032456 0,0.00706 0,-0.013405 l 0,-0.0381 -0.0345722,0 q -0.0366889,0 -0.0430389,-0.00212 -0.00635,-0.00212 -0.0119944,-0.00776 -0.005644,-0.00564 -0.007761,-0.0127 -0.002822,-0.00706 -0.002117,-0.014111 7.0555e-4,-0.00353 0.001411,-0.00776 0.002822,-0.00706 0.008467,-0.0127 0.005644,-0.00564 0.0119944,-0.00776 0.00635,-0.00212 0.0769056,-0.00212 l 0.0684389,0 0,0.071261 q 0,0.070556 -7.0556e-4,0.077611 -0.002117,0.016933 -0.009878,0.032456 -0.0218722,0.043744 -0.06985,0.054328 -0.004233,7.056e-4 -0.008467,0.00141 -0.007056,7.055e-4 -0.0776111,7.055e-4 -0.0762,0 -0.0867833,-0.00212 -0.0169333,-0.00423 -0.03175,-0.0127 -0.0416278,-0.026105 -0.0472722,-0.075494 l -7.0556e-4,-0.2046111 7.0556e-4,-7.056e-4 q 0.002822,-0.034572 0.0218722,-0.062089 0.003528,-0.00494 0.0508,-0.067028 0.0479778,-0.0613834 0.0529167,-0.0656167 0.0246944,-0.0261056 0.0599722,-0.0310444 z"
       style="font-size:0.70555556px;font-family:OCRA;text-align:center;text-anchor:middle;fill:#ffffff"
       id="path3446" />
    <path
       d="m 0.83290051,1.2009907 0,-0.24553331 0.04445,0 0.04445,7.0556e-4 0.004233,0.009878 0.0881945,0.20108337 0.083961,0.1905 0,-0.1869723 q 0,-0.18697218 7.056e-4,-0.18908885 0.00353,-0.009878 0.010583,-0.0169333 0.00494,-0.004939 0.011289,-0.007056 0.00847,-0.002822 0.016933,-0.001411 0.00494,7.0556e-4 0.00917,0.002822 0.013406,0.007056 0.018344,0.0218722 7.055e-4,0.002822 7.055e-4,0.24976671 l 0,0.2469444 -0.04445,0 -0.045155,0 -0.0881945,-0.2010833 -0.0874889,-0.2003778 -7.0555e-4,0.1869722 q 0,0.1869722 -7.0556e-4,0.1890889 -0.004233,0.015522 -0.0176389,0.021872 -0.009878,0.00423 -0.01905,0.00353 -0.003528,-7.055e-4 -0.007761,-0.00212 -0.00635,-0.00212 -0.0119944,-0.00776 -0.005644,-0.00635 -0.007761,-0.011994 -0.002117,-0.00635 -0.002117,-0.1213556 0,-0.0127 0,-0.13335 z"
       style="font-size:0.70555556px;font-family:OCRA;text-align:center;text-anchor:middle;fill:#ffffff"
       id="path3448" />
    <path
       d="m 1.3654847,0.95616295 q 0.00212,-7.0556e-4 0.068439,-7.0556e-4 l 0.071967,7.0556e-4 q 0.047978,0.005644 0.075494,0.0479778 0.00212,0.00353 0.038806,0.0762 0.040922,0.081844 0.04445,0.095956 l 0.00141,0.00353 q 0.00423,0.016933 0.00423,0.036689 0,0.019756 -0.00423,0.036689 -0.00423,0.016933 -0.032456,0.071967 -0.00423,0.00917 -0.013405,0.027517 -0.036689,0.072672 -0.039511,0.076906 -0.00847,0.014111 -0.021872,0.0254 -0.022578,0.018344 -0.051505,0.021872 l -0.074789,7.055e-4 -0.067733,0 -0.00282,-0.00141 q -0.023283,-0.00706 -0.024694,-0.032456 0,-0.023989 0.024694,-0.032455 0.00282,-7.056e-4 0.021872,-0.00141 l 0.019755,0 0,-0.1933222 0,-0.1933223 -0.019755,0 q -0.01905,0 -0.021872,-0.00141 -0.015522,-0.00423 -0.021872,-0.018344 -0.00423,-0.008467 -0.00282,-0.0183445 7.056e-4,-0.004939 0.00282,-0.009878 0.00706,-0.0162278 0.0254,-0.01905 z m 0.1375834,0.0677334 q -0.00212,-7.056e-4 -0.016933,-7.056e-4 l -0.015522,0 0,0.1933223 0,0.1933222 0.015522,0 q 0.016933,0 0.023283,-0.00353 0.00706,-0.00282 0.011994,-0.00917 0.00212,-0.00282 0.058561,-0.1150056 0.016228,-0.032455 0.018344,-0.0381 0.00282,-0.010583 0.00423,-0.021167 7.055e-4,-0.011289 -0.00141,-0.022578 -0.00141,-0.00564 -0.00282,-0.011289 -0.00212,-0.00564 -0.018344,-0.0381 -0.056444,-0.1114778 -0.058561,-0.1150056 -0.00706,-0.00847 -0.018344,-0.011994 z"
       style="font-size:0.70555556px;font-family:OCRA;text-align:center;text-anchor:middle;fill:#ffffff"
       id="path3450" />
  </g>
  <g
     style="font-size:0.70555562px;font-family:OCRA;text-align:center;text-anchor:middle;fill:#ffffff"
     id="text_1_-11">
    <path
       d="m 2.7779101,2.7733327 q 0.00423,-7.056e-4 0.093133,-7.056e-4 l 0.093839,7.056e-4 q 0.032456,0.00423 0.054328,0.026811 0.021872,0.022578 0.0254,0.054328 0.00212,0.014817 -0.00282,0.023989 l -0.00706,0.00917 q -0.00988,0.00917 -0.023283,0.00917 -0.00494,0 -0.00917,-7.055e-4 -0.00917,-0.00282 -0.014817,-0.00917 -0.00847,-0.00917 -0.00988,-0.023283 0,-0.00494 -0.00141,-0.00847 -0.00353,-0.00988 -0.014111,-0.013406 l -0.00282,-0.00141 -0.086783,0 -0.087489,0 -0.00141,0.00141 q -0.00494,0.00353 -0.00353,0.010583 0.00141,0.00141 0.1255889,0.1615723 0.1248833,0.1601611 0.127,0.1629833 0.00988,0.014817 0.011994,0.032456 0.00494,0.036689 -0.022578,0.0635 -0.014111,0.014111 -0.033867,0.01905 -0.00988,0.00282 -0.086078,0.00282 l -0.016933,0 q -0.088194,0 -0.093133,-7.056e-4 -0.032456,-0.00423 -0.054328,-0.026811 -0.021872,-0.022578 -0.0254,-0.054328 -0.00141,-0.014111 0.00282,-0.023283 0.00212,-0.00423 0.00635,-0.00847 0.00635,-0.00706 0.015522,-0.00917 0.00353,-0.00141 0.00847,-0.00141 0.00917,0 0.016228,0.00423 0.00353,0.00141 0.00706,0.00494 0.00988,0.00917 0.010583,0.023989 7.056e-4,0.00564 0.00141,0.00847 0.00423,0.00988 0.014111,0.013405 l 0.00282,0.00141 0.086783,0 0.086078,0 0.00212,-7.056e-4 q 0.00635,-0.00282 0.00423,-0.010583 0,-0.00141 -0.1255889,-0.1622778 -0.1248834,-0.1601612 -0.127,-0.1629834 -0.016228,-0.0254 -0.011289,-0.055033 0.00282,-0.015522 0.011994,-0.028222 0.01905,-0.028928 0.052917,-0.033867 z"
       style="font-size:0.70555562px;font-family:OCRA;text-align:center;text-anchor:middle;fill:#ffffff"
       id="path3439" />
    <path
       d="m 3.3782277,2.7733327 q 0.00635,-7.056e-4 0.073378,-7.056e-4 l 0.06985,7.056e-4 q 0.021872,0.00423 0.026811,0.0254 7.056e-4,0.00353 7.056e-4,0.00776 0,0.020461 -0.020461,0.031044 -0.00564,0.00282 -0.051506,0.00282 l -0.023989,0 q -0.067733,0 -0.070556,7.055e-4 -0.010583,0.00353 -0.017639,0.011995 -0.00212,0.00282 -0.021167,0.041628 -0.049389,0.097367 -0.053622,0.1072444 -0.00353,0.00776 -0.00494,0.018345 l 0,0.0254 0,0.00141 q 0.00141,0.010583 0.00494,0.018344 0.00423,0.00988 0.053622,0.10795 0.01905,0.0381 0.021167,0.040922 0.00706,0.00847 0.017639,0.011994 0.00282,7.056e-4 0.070556,7.056e-4 0.06985,7.055e-4 0.075494,0.00282 0.019756,0.00776 0.020461,0.031044 0,0.022578 -0.020461,0.031044 l -0.00706,0.00212 -0.1411111,0 q -0.049389,-0.00564 -0.075495,-0.047978 l -0.0762,-0.1524001 q -0.00847,-0.019756 -0.011289,-0.042333 l 0,-0.033161 q 0,-7.056e-4 0,-0.00212 0.00282,-0.022578 0.011289,-0.042333 l 0.0762,-0.1524 q 0.026106,-0.041628 0.073378,-0.047978 z"
       style="font-size:0.70555562px;font-family:OCRA;text-align:center;text-anchor:middle;fill:#ffffff"
       id="path3441" />
    <path
       d="m 3.7485342,2.7733327 0.014817,7.055e-4 q 0.00212,7.056e-4 0.00635,0.00212 0.00988,0.00494 0.014817,0.015522 0.00353,0.00635 0.00353,0.030339 l 0,0.058561 7.056e-4,0.079728 0.1044222,-0.089606 q 0.1044222,-0.089606 0.1072445,-0.091017 0.011289,-0.00847 0.024694,-0.00635 0.00353,7.055e-4 0.00635,0.00141 0.013406,0.00494 0.01905,0.017639 0.00635,0.013405 7.056e-4,0.026811 l -0.00635,0.00988 -0.00212,0.00212 q -0.00212,0.00212 -0.1192389,0.1023055 -0.1171222,0.1001889 -0.1171222,0.1001889 0,7.056e-4 0.1171222,0.1001889 0.1171222,0.1001889 0.1192389,0.1023056 0.010583,0.010583 0.010583,0.024694 0,0.014817 -0.010583,0.024694 -0.0127,0.011994 -0.029633,0.00847 l -0.011995,-0.00564 -7.055e-4,0 q -0.00282,-0.00212 -0.1072445,-0.091722 l -0.1044222,-0.0889 -7.056e-4,0.079728 q 0,0.081844 -0.00353,0.088195 -0.00494,0.010583 -0.014817,0.015522 -0.00988,0.00423 -0.01905,0.00353 -0.00353,-7.056e-4 -0.00776,-0.00212 -0.00635,-0.00212 -0.011995,-0.00776 -0.00776,-0.00776 -0.00988,-0.018344 l 0,-0.4656667 q 0.00212,-0.00988 0.00988,-0.017639 0.00776,-0.00776 0.017639,-0.00988 z"
       style="font-size:0.70555562px;font-family:OCRA;text-align:center;text-anchor:middle;fill:#ffffff"
       id="path3443" />
  </g>
  <g
     style="font-size:0.70555562px;font-family:OCRA;text-align:center;text-anchor:middle;fill:#ffffff"
     id="text_1_-1-8">
    <path
       d="m 2.4854339,1.2009907 0,-0.24553335 0.041628,0 0.042333,0 0.00494,0.00635 0.038806,0.0564445 0.036689,0.052211 0.00212,0.00212 0.040922,-0.058561 0.040922,-0.0585611 0.042333,0 0.042333,0 0,0.24694445 q 0,0.24765 -7.056e-4,0.2497667 -0.00494,0.015522 -0.018344,0.021872 -0.00917,0.00423 -0.01905,0.00353 -0.00353,-7.055e-4 -0.00706,-0.00212 -0.00635,-0.00212 -0.011289,-0.00706 -0.00706,-0.00635 -0.010583,-0.016933 -7.056e-4,-0.00212 -7.056e-4,-0.2024944 l 0,-0.1996723 -0.032456,0.046567 -0.033161,0.046567 0,0.00988 q 0,0.016933 -0.00423,0.024694 -0.00423,0.00635 -0.011289,0.011289 -0.00917,0.00564 -0.021872,0.00494 -0.00776,-7.056e-4 -0.013406,-0.00423 -0.00988,-0.00635 -0.014111,-0.016228 -0.00212,-0.00635 -0.00212,-0.01905 L 2.6173728,1.141724 2.5849172,1.0958629 2.5531672,1.0500018 2.5524617,1.249674 q 0,0.2003778 -7.056e-4,0.2024945 -0.00423,0.015522 -0.017639,0.021872 -0.00988,0.00423 -0.01905,0.00353 -0.00353,-7.055e-4 -0.00776,-0.00212 -0.00635,-0.00212 -0.011994,-0.00776 -0.00564,-0.00635 -0.00776,-0.011994 -0.00212,-0.00635 -0.00212,-0.1213556 0,-0.0127 0,-0.13335 z"
       style="font-size:0.70555562px;font-family:OCRA;text-align:center;text-anchor:middle;fill:#ffffff"
       id="path3430" />
    <path
       d="m 3.0180182,0.95616291 q 0.00212,-7.0556e-4 0.1375833,-7.0556e-4 l 0.1389945,7.0556e-4 q 0.021872,0.004233 0.026811,0.0254 7.055e-4,0.003528 7.055e-4,0.007761 0,0.0218722 -0.019756,0.0310445 -0.00353,0.00141 -0.00776,0.00212 -0.00282,7.056e-4 -0.053622,7.056e-4 l -0.051506,0 0,0.1933222 0,0.1933223 0.051506,0 q 0.053622,0 0.059972,0.00212 0.0127,0.00494 0.018344,0.017639 0.00917,0.019756 -0.00564,0.036689 l -0.00847,0.00706 -0.011289,0.00353 -0.1397,7.055e-4 -0.1368778,0 -0.00282,-0.00141 q -0.023283,-0.00706 -0.024694,-0.032456 0,-0.023283 0.024694,-0.032455 l 0.00282,-7.056e-4 0.052211,-7.055e-4 0.052917,0 0,-0.1933223 0,-0.1933222 -0.052917,0 -0.052211,0 -0.00282,-0.00141 q -0.015522,-0.00423 -0.021872,-0.018344 -0.00423,-0.008467 -0.00282,-0.0183444 7.055e-4,-0.004939 0.00282,-0.009878 0.00706,-0.0162278 0.0254,-0.01905 z"
       style="font-size:0.70555562px;font-family:OCRA;text-align:center;text-anchor:middle;fill:#ffffff"
       id="path3432" />
    <path
       d="m 3.5597747,0.95616291 q 0.00423,-7.0556e-4 0.093133,-7.0556e-4 l 0.093839,7.0556e-4 q 0.032456,0.004233 0.054328,0.0268111 0.021872,0.0225778 0.0254,0.0543278 0.00212,0.014817 -0.00282,0.023989 l -0.00706,0.00917 q -0.00988,0.00917 -0.023283,0.00917 -0.00494,0 -0.00917,-7.055e-4 -0.00917,-0.00282 -0.014817,-0.00917 -0.00847,-0.00917 -0.00988,-0.023283 0,-0.00494 -0.00141,-0.00847 -0.00353,-0.00988 -0.014111,-0.013406 l -0.00282,-0.00141 -0.086783,0 -0.087489,0 -0.00141,0.00141 q -0.00494,0.00353 -0.00353,0.010583 0.00141,0.00141 0.1255889,0.1615723 0.1248834,0.1601611 0.127,0.1629833 0.00988,0.014817 0.011994,0.032456 0.00494,0.036689 -0.022578,0.0635 -0.014111,0.014111 -0.033867,0.01905 -0.00988,0.00282 -0.086078,0.00282 l -0.016933,0 q -0.088194,0 -0.093133,-7.055e-4 -0.032456,-0.00423 -0.054328,-0.026811 -0.021872,-0.022578 -0.0254,-0.054328 -0.00141,-0.014111 0.00282,-0.023283 0.00212,-0.00423 0.00635,-0.00847 0.00635,-0.00706 0.015522,-0.00917 0.00353,-0.00141 0.00847,-0.00141 0.00917,0 0.016228,0.00423 0.00353,0.00141 0.00706,0.00494 0.00988,0.00917 0.010583,0.023989 7.055e-4,0.00564 0.00141,0.00847 0.00423,0.00988 0.014111,0.013406 l 0.00282,0.00141 0.086783,0 0.086078,0 0.00212,-7.056e-4 q 0.00635,-0.00282 0.00423,-0.010583 0,-0.00141 -0.1255889,-0.1622778 -0.1248834,-0.1601611 -0.1270001,-0.1629834 -0.016228,-0.0254 -0.011289,-0.055033 0.00282,-0.015522 0.011994,-0.0282222 0.01905,-0.0289278 0.052917,-0.0338667 z"
       style="font-size:0.70555562px;font-family:OCRA;text-align:center;text-anchor:middle;fill:#ffffff"
       id="path3434" />
    <path
       d="m 4.1544478,0.95616291 q 0.00353,-7.0556e-4 0.00988,-7.0556e-4 0.030339,0 0.055033,0.0197556 0.00776,0.005644 0.013406,0.0134055 0.00423,0.004939 0.00706,0.009878 0.00282,0.004233 0.040922,0.0811389 0.0381,0.0762 0.040922,0.08255 0.0127,0.035278 0.00917,0.071261 -0.00212,0.013405 -0.00564,0.026106 -0.00353,0.0127 -0.04445,0.094544 -0.0381,0.0762 -0.040922,0.080433 -0.00494,0.00847 -0.011994,0.016228 -0.032456,0.033161 -0.077611,0.0254 -0.0127,-0.00212 -0.023989,-0.00776 -0.022578,-0.010583 -0.035983,-0.032456 L 4.0091033,1.2736629 q -0.00706,-0.018344 -0.00988,-0.039511 l 0,-0.033161 q 0,-7.056e-4 0,-0.00212 0.00282,-0.021167 0.00988,-0.039511 l 0.081139,-0.16227777 q 0.016933,-0.0275167 0.047272,-0.0366889 0.00776,-0.002822 0.016933,-0.004233 z m 0.014817,0.0677333 q -0.00706,-0.00141 -0.0127,0.00141 -0.00353,0.00141 -0.00635,0.00423 -0.00282,0.00212 -0.039511,0.076906 -0.037394,0.074789 -0.038805,0.079022 -0.00353,0.00776 -0.00494,0.017639 l 0,0.026106 0,7.056e-4 q 0.00141,0.00988 0.00494,0.017639 0.00141,0.00423 0.038805,0.079022 0.036689,0.074789 0.039511,0.077611 0.00423,0.00423 0.00988,0.00494 0.00635,0.00212 0.0127,-7.055e-4 0.00353,-0.00141 0.00635,-0.00423 0.00212,-0.00282 0.023283,-0.045155 l 0.0381,-0.0762 q 0.016933,-0.033161 0.01905,-0.038806 0.00494,-0.015522 0.00423,-0.031044 0,-0.00141 0,-0.00282 -0.00141,-0.010583 -0.00423,-0.021167 -0.00212,-0.00564 -0.01905,-0.038806 l -0.0381,-0.0762 q -0.021167,-0.042333 -0.023283,-0.04445 -0.00423,-0.00423 -0.00988,-0.00564 z"
       style="font-size:0.70555562px;font-family:OCRA;text-align:center;text-anchor:middle;fill:#ffffff"
       id="path3436" />
  </g>
  <g
     style="font-size:0.70555562px;font-family:OCRA;text-align:center;text-anchor:middle;fill:#ffffff"
     id="text_1_-11-0">
    <path
       d="m 5.1726545,3.0181605 0,-0.2455334 0.041628,0 0.042333,0 0.00494,0.00635 0.038806,0.056445 0.036689,0.052211 0.00212,0.00212 0.040922,-0.058561 0.040922,-0.058561 0.042333,0 0.042333,0 0,0.2469445 q 0,0.24765 -7.055e-4,0.2497667 -0.00494,0.015522 -0.018344,0.021872 -0.00917,0.00423 -0.01905,0.00353 -0.00353,-7.056e-4 -0.00706,-0.00212 -0.00635,-0.00212 -0.011289,-0.00706 -0.00706,-0.00635 -0.010583,-0.016933 -7.055e-4,-0.00212 -7.055e-4,-0.2024944 l 0,-0.1996723 -0.032456,0.046567 -0.033161,0.046567 0,0.00988 q 0,0.016933 -0.00423,0.024694 -0.00423,0.00635 -0.011289,0.011289 -0.00917,0.00564 -0.021872,0.00494 -0.00776,-7.056e-4 -0.013406,-0.00423 -0.00988,-0.00635 -0.014111,-0.016228 -0.00212,-0.00635 -0.00212,-0.01905 l -7.055e-4,-0.011995 -0.032456,-0.045861 -0.03175,-0.045861 -7.055e-4,0.1996722 q 0,0.2003778 -7.056e-4,0.2024945 -0.00423,0.015522 -0.017639,0.021872 -0.00988,0.00423 -0.01905,0.00353 -0.00353,-7.056e-4 -0.00776,-0.00212 -0.00635,-0.00212 -0.011994,-0.00776 -0.00564,-0.00635 -0.00776,-0.011994 -0.00212,-0.00635 -0.00212,-0.1213556 0,-0.0127 0,-0.13335 z"
       style="font-size:0.70555562px;font-family:OCRA;text-align:center;text-anchor:middle;fill:#ffffff"
       id="path3421" />
    <path
       d="m 5.8329443,2.7733327 q 0.00353,-7.056e-4 0.00988,-7.056e-4 0.030339,0 0.055033,0.019756 0.00776,0.00564 0.013406,0.013405 0.00423,0.00494 0.00706,0.00988 0.00282,0.00423 0.040922,0.081139 0.0381,0.0762 0.040922,0.08255 0.0127,0.035278 0.00917,0.071261 -0.00212,0.013406 -0.00564,0.026106 -0.00353,0.0127 -0.04445,0.094545 -0.0381,0.0762 -0.040922,0.080433 -0.00494,0.00847 -0.011994,0.016228 -0.032456,0.033161 -0.077611,0.0254 -0.0127,-0.00212 -0.023989,-0.00776 -0.022578,-0.010583 -0.035983,-0.032456 L 5.6875999,3.0908327 q -0.00706,-0.018344 -0.00988,-0.039511 l 0,-0.033161 q 0,-7.056e-4 0,-0.00212 0.00282,-0.021167 0.00988,-0.039511 l 0.081139,-0.1622778 q 0.016933,-0.027517 0.047272,-0.036689 0.00776,-0.00282 0.016933,-0.00423 z m 0.014817,0.067733 q -0.00706,-0.00141 -0.0127,0.00141 -0.00353,0.00141 -0.00635,0.00423 -0.00282,0.00212 -0.039511,0.076906 -0.037394,0.074789 -0.038806,0.079022 -0.00353,0.00776 -0.00494,0.017639 l 0,0.026105 0,7.056e-4 q 0.00141,0.00988 0.00494,0.017639 0.00141,0.00423 0.038806,0.079022 0.036689,0.074789 0.039511,0.077611 0.00423,0.00423 0.00988,0.00494 0.00635,0.00212 0.0127,-7.056e-4 0.00353,-0.00141 0.00635,-0.00423 0.00212,-0.00282 0.023283,-0.045156 l 0.0381,-0.0762 q 0.016933,-0.033161 0.01905,-0.038806 0.00494,-0.015522 0.00423,-0.031045 0,-0.00141 0,-0.00282 -0.00141,-0.010583 -0.00423,-0.021167 -0.00212,-0.00564 -0.01905,-0.038806 l -0.0381,-0.0762 q -0.021167,-0.042333 -0.023283,-0.04445 -0.00423,-0.00423 -0.00988,-0.00564 z"
       style="font-size:0.70555562px;font-family:OCRA;text-align:center;text-anchor:middle;fill:#ffffff"
       id="path3423" />
    <path
       d="m 6.2469952,2.7733327 q 0.00423,-7.056e-4 0.093133,-7.056e-4 l 0.093839,7.056e-4 q 0.032456,0.00423 0.054328,0.026811 0.021872,0.022578 0.0254,0.054328 0.00212,0.014817 -0.00282,0.023989 l -0.00706,0.00917 q -0.00988,0.00917 -0.023283,0.00917 -0.00494,0 -0.00917,-7.055e-4 -0.00917,-0.00282 -0.014817,-0.00917 -0.00847,-0.00917 -0.00988,-0.023283 0,-0.00494 -0.00141,-0.00847 -0.00353,-0.00988 -0.014111,-0.013406 l -0.00282,-0.00141 -0.086783,0 -0.087489,0 -0.00141,0.00141 q -0.00494,0.00353 -0.00353,0.010583 0.00141,0.00141 0.1255889,0.1615723 0.1248834,0.1601611 0.127,0.1629833 0.00988,0.014817 0.011995,0.032456 0.00494,0.036689 -0.022578,0.0635 -0.014111,0.014111 -0.033867,0.01905 -0.00988,0.00282 -0.086078,0.00282 l -0.016933,0 q -0.088195,0 -0.093133,-7.056e-4 -0.032456,-0.00423 -0.054328,-0.026811 -0.021872,-0.022578 -0.0254,-0.054328 -0.00141,-0.014111 0.00282,-0.023283 0.00212,-0.00423 0.00635,-0.00847 0.00635,-0.00706 0.015522,-0.00917 0.00353,-0.00141 0.00847,-0.00141 0.00917,0 0.016228,0.00423 0.00353,0.00141 0.00706,0.00494 0.00988,0.00917 0.010583,0.023989 7.055e-4,0.00564 0.00141,0.00847 0.00423,0.00988 0.014111,0.013405 l 0.00282,0.00141 0.086783,0 0.086078,0 0.00212,-7.056e-4 q 0.00635,-0.00282 0.00423,-0.010583 0,-0.00141 -0.1255889,-0.1622778 -0.1248833,-0.1601612 -0.127,-0.1629834 -0.016228,-0.0254 -0.011289,-0.055033 0.00282,-0.015522 0.011995,-0.028222 0.01905,-0.028928 0.052917,-0.033867 z"
       style="font-size:0.70555562px;font-family:OCRA;text-align:center;text-anchor:middle;fill:#ffffff"
       id="path3425" />
    <path
       d="m 6.7139628,2.7733327 q 0.00212,-7.056e-4 0.1375833,-7.056e-4 l 0.1389945,7.056e-4 q 0.021872,0.00423 0.026811,0.0254 7.056e-4,0.00353 7.056e-4,0.00776 0,0.021872 -0.019756,0.031044 -0.00353,0.00141 -0.00776,0.00212 -0.00282,7.056e-4 -0.053622,7.056e-4 l -0.051506,0 0,0.1933222 0,0.1933223 0.051506,0 q 0.053622,0 0.059972,0.00212 0.0127,0.00494 0.018344,0.017639 0.00917,0.019756 -0.00564,0.036689 l -0.00847,0.00706 -0.011289,0.00353 -0.1397,7.056e-4 -0.1368778,0 -0.00282,-0.00141 q -0.023283,-0.00706 -0.024694,-0.032456 0,-0.023283 0.024694,-0.032456 l 0.00282,-7.056e-4 0.052211,-7.055e-4 0.052917,0 0,-0.1933223 0,-0.1933222 -0.052917,0 -0.052211,0 -0.00282,-0.00141 q -0.015522,-0.00423 -0.021872,-0.018344 -0.00423,-0.00847 -0.00282,-0.018344 7.055e-4,-0.00494 0.00282,-0.00988 0.00706,-0.016228 0.0254,-0.01905 z"
       style="font-size:0.70555562px;font-family:OCRA;text-align:center;text-anchor:middle;fill:#ffffff"
       id="path3427" />
  </g>
  <g
     style="font-size:0.70555562px;font-family:OCRA;text-align:center;text-anchor:middle;fill:#ffffff"
     id="text_1_-1-8-5">
    <path
       d="m 5.8639107,0.95616291 q 0.00635,-7.0556e-4 0.073378,-7.0556e-4 l 0.06985,7.0556e-4 q 0.021872,0.004233 0.026811,0.0254 7.056e-4,0.003528 7.056e-4,0.007761 0,0.0204611 -0.020461,0.0310445 -0.00564,0.00282 -0.051506,0.00282 l -0.023989,0 q -0.067733,0 -0.070556,7.055e-4 -0.010583,0.00353 -0.017639,0.011994 -0.00212,0.00282 -0.021167,0.041628 -0.049389,0.097367 -0.053622,0.1072444 -0.00353,0.00776 -0.00494,0.018344 l 0,0.0254 0,0.00141 q 0.00141,0.010583 0.00494,0.018344 0.00423,0.00988 0.053622,0.10795 0.01905,0.0381 0.021167,0.040922 0.00706,0.00847 0.017639,0.011994 0.00282,7.056e-4 0.070556,7.056e-4 0.06985,7.055e-4 0.075494,0.00282 0.019756,0.00776 0.020461,0.031044 0,0.022578 -0.020461,0.031045 l -0.00706,0.00212 -0.1411111,0 q -0.049389,-0.00564 -0.075495,-0.047978 l -0.0762,-0.1524 q -0.00847,-0.019756 -0.011289,-0.042333 l 0,-0.033161 q 0,-7.056e-4 0,-0.00212 0.00282,-0.022578 0.011289,-0.042333 l 0.0762,-0.1524 q 0.026106,-0.0416278 0.073378,-0.0479778 z"
       style="font-size:0.70555562px;font-family:OCRA;text-align:center;text-anchor:middle;fill:#ffffff"
       id="path3416" />
    <path
       d="m 6.2723172,0.95616291 q 0.00423,-7.0556e-4 0.093133,-7.0556e-4 l 0.093839,7.0556e-4 q 0.032456,0.004233 0.054328,0.0268111 0.021872,0.0225778 0.0254,0.0543278 0.00212,0.014817 -0.00282,0.023989 l -0.00706,0.00917 q -0.00988,0.00917 -0.023283,0.00917 -0.00494,0 -0.00917,-7.055e-4 -0.00917,-0.00282 -0.014817,-0.00917 -0.00847,-0.00917 -0.00988,-0.023283 0,-0.00494 -0.00141,-0.00847 -0.00353,-0.00988 -0.014111,-0.013406 l -0.00282,-0.00141 -0.086783,0 -0.087489,0 -0.00141,0.00141 q -0.00494,0.00353 -0.00353,0.010583 0.00141,0.00141 0.1255889,0.1615723 0.1248834,0.1601611 0.1270001,0.1629833 0.00988,0.014817 0.011994,0.032456 0.00494,0.036689 -0.022578,0.0635 -0.014111,0.014111 -0.033867,0.01905 -0.00988,0.00282 -0.086078,0.00282 l -0.016933,0 q -0.088194,0 -0.093133,-7.055e-4 -0.032456,-0.00423 -0.054328,-0.026811 -0.021872,-0.022578 -0.0254,-0.054328 -0.00141,-0.014111 0.00282,-0.023283 0.00212,-0.00423 0.00635,-0.00847 0.00635,-0.00706 0.015522,-0.00917 0.00353,-0.00141 0.00847,-0.00141 0.00917,0 0.016228,0.00423 0.00353,0.00141 0.00706,0.00494 0.00988,0.00917 0.010583,0.023989 7.055e-4,0.00564 0.00141,0.00847 0.00423,0.00988 0.014111,0.013406 l 0.00282,0.00141 0.086783,0 0.086078,0 0.00212,-7.056e-4 q 0.00635,-0.00282 0.00423,-0.010583 0,-0.00141 -0.1255889,-0.1622778 -0.1248834,-0.1601611 -0.127,-0.1629834 -0.016228,-0.0254 -0.011289,-0.055033 0.00282,-0.015522 0.011994,-0.0282222 0.01905,-0.0289278 0.052917,-0.0338667 z"
       style="font-size:0.70555562px;font-family:OCRA;text-align:center;text-anchor:middle;fill:#ffffff"
       id="path3418" />
  </g>
  <g
     style="font-size:0.70555562px;font-family:OCRA;text-align:center;text-anchor:middle;fill:#ffffff"
     id="text_1_-11-0-3">
    <path
       d="m 8.1655998,2.7733327 q 0.00212,-7.056e-4 0.1375833,-7.056e-4 l 0.1389945,7.056e-4 q 0.021872,0.00423 0.026811,0.0254 7.055e-4,0.00353 7.055e-4,0.00776 0,0.021872 -0.019755,0.031044 -0.00353,0.00141 -0.00776,0.00212 -0.00282,7.056e-4 -0.053622,7.056e-4 l -0.051505,0 0,0.1933222 0,0.1933223 0.051505,0 q 0.053622,0 0.059972,0.00212 0.0127,0.00494 0.018344,0.017639 0.00917,0.019756 -0.00564,0.036689 l -0.00847,0.00706 -0.011289,0.00353 -0.1397,7.056e-4 -0.1368778,0 -0.00282,-0.00141 q -0.023283,-0.00706 -0.024695,-0.032456 0,-0.023283 0.024695,-0.032456 l 0.00282,-7.056e-4 0.052211,-7.055e-4 0.052917,0 0,-0.1933223 0,-0.1933222 -0.052917,0 -0.052211,0 -0.00282,-0.00141 q -0.015522,-0.00423 -0.021872,-0.018344 -0.00423,-0.00847 -0.00282,-0.018344 7.056e-4,-0.00494 0.00282,-0.00988 0.00706,-0.016228 0.0254,-0.01905 z"
       style="font-size:0.70555562px;font-family:OCRA;text-align:center;text-anchor:middle;fill:#ffffff"
       id="path3409" />
    <path
       d="m 8.6417396,3.0181605 0,-0.2455334 0.04445,0 0.04445,7.056e-4 0.00423,0.00988 0.088195,0.2010833 0.083961,0.1905 0,-0.1869722 q 0,-0.1869722 7.056e-4,-0.1890889 0.00353,-0.00988 0.010583,-0.016933 0.00494,-0.00494 0.011289,-0.00706 0.00847,-0.00282 0.016933,-0.00141 0.00494,7.055e-4 0.00917,0.00282 0.013406,0.00706 0.018345,0.021872 7.055e-4,0.00282 7.055e-4,0.2497667 l 0,0.2469445 -0.04445,0 -0.045155,0 -0.088195,-0.2010834 -0.087489,-0.2003778 -7.055e-4,0.1869723 q 0,0.1869722 -7.056e-4,0.1890889 -0.00423,0.015522 -0.017639,0.021872 -0.00988,0.00423 -0.01905,0.00353 -0.00353,-7.056e-4 -0.00776,-0.00212 -0.00635,-0.00212 -0.011994,-0.00776 -0.00564,-0.00635 -0.00776,-0.011994 -0.00212,-0.00635 -0.00212,-0.1213556 0,-0.0127 0,-0.13335 z"
       style="font-size:0.70555562px;font-family:OCRA;text-align:center;text-anchor:middle;fill:#ffffff"
       id="path3411" />
    <path
       d="m 9.1461016,2.8191938 0,-0.046567 0.1665112,0 0.1665111,0 0,0.046567 q 0,0.050095 -0.00282,0.056445 -0.00494,0.013406 -0.018345,0.01905 -0.00564,0.00212 -0.0127,0.00212 -0.00847,0 -0.014817,-0.00282 -0.011995,-0.00635 -0.016933,-0.018344 -0.00212,-0.00635 -0.00212,-0.022578 l 0,-0.0127 -0.032456,0 -0.033161,0 0,0.2130778 q 0,0.2137833 -7.056e-4,0.2159 -0.00423,0.015522 -0.017639,0.021872 -0.00988,0.00423 -0.01905,0.00353 -0.00353,-7.056e-4 -0.00776,-0.00212 -0.00635,-0.00212 -0.011994,-0.00776 -0.00564,-0.00635 -0.00776,-0.011994 -0.00212,-0.00635 -0.00212,-0.1171223 0,-0.00494 0,-0.1037166 l 0,-0.2116667 -0.033161,0 -0.032456,0 0,0.0127 q 0,0.016228 -0.00212,0.022578 -0.00494,0.013406 -0.01905,0.01905 -0.00564,0.00212 -0.0127,0.00212 -0.00776,0 -0.014111,-0.00282 -0.0127,-0.00635 -0.016933,-0.018344 -0.00212,-0.00635 -0.00212,-0.056445 z"
       style="font-size:0.70555562px;font-family:OCRA;text-align:center;text-anchor:middle;fill:#ffffff"
       id="path3413" />
  </g>
  <g
     style="font-size:0.70555562px;font-family:OCRA;text-align:center;text-anchor:middle;fill:#ffffff"
     id="text_1_-1-8-5-3">
    <path
       d="m 8.4148805,1.2009907 0,-0.24553335 0.12065,0 q 0.1248834,7.0556e-4 0.1326445,0.002822 0.00212,0 0.00282,7.0556e-4 0.046567,0.0112889 0.067028,0.0550334 0.00706,0.015522 0.00917,0.03175 l 0,0.1418166 0,7.056e-4 q -0.00564,0.050094 -0.048683,0.0762 -0.018344,0.010583 -0.039511,0.013406 -0.00706,7.055e-4 -0.091722,7.055e-4 l -0.085372,0 0,0.085372 q 0,0.088194 -0.00353,0.094544 -0.00494,0.010583 -0.014817,0.015522 -0.00988,0.00423 -0.01905,0.00353 -0.00353,-7.055e-4 -0.00776,-0.00212 -0.00635,-0.00212 -0.011994,-0.00776 -0.00564,-0.00635 -0.00776,-0.011994 -0.00212,-0.00635 -0.00212,-0.1213556 0,-0.0127 0,-0.13335 z M 8.6547694,1.0238962 q -0.00212,-7.055e-4 -0.087489,-7.055e-4 l -0.085372,0 0,0.093839 0,0.093839 0.085372,0 q 0.087489,0 0.093839,-0.00353 0.010583,-0.00494 0.015522,-0.015522 0.00353,-0.00635 0.00353,-0.033161 0,-0.00423 0,-0.041628 l 0,-0.065617 -0.00141,-0.00353 q -0.00494,-0.018344 -0.023989,-0.023989 z"
       style="font-size:0.70555562px;font-family:OCRA;text-align:center;text-anchor:middle;fill:#ffffff"
       id="path3404" />
    <path
       d="m 8.9474648,0.95616291 q 0.00212,-7.0556e-4 0.068439,-7.0556e-4 l 0.071967,7.0556e-4 q 0.047978,0.005644 0.075494,0.0479778 0.00212,0.00353 0.038806,0.0762 0.040922,0.081844 0.04445,0.095956 l 0.00141,0.00353 q 0.00423,0.016933 0.00423,0.036689 0,0.019756 -0.00423,0.036689 -0.00423,0.016933 -0.032456,0.071967 -0.00423,0.00917 -0.013405,0.027517 -0.036689,0.072672 -0.039511,0.076906 -0.00847,0.014111 -0.021872,0.0254 -0.022578,0.018344 -0.051505,0.021872 l -0.074789,7.055e-4 -0.067733,0 -0.00282,-0.00141 q -0.023283,-0.00706 -0.024694,-0.032456 0,-0.023989 0.024694,-0.032455 0.00282,-7.056e-4 0.021872,-0.00141 l 0.019756,0 0,-0.1933223 0,-0.1933222 -0.019756,0 q -0.01905,0 -0.021872,-0.00141 -0.015522,-0.00423 -0.021872,-0.018344 -0.00423,-0.008467 -0.00282,-0.0183444 7.055e-4,-0.004939 0.00282,-0.009878 0.00706,-0.0162278 0.0254,-0.01905 z m 0.1375833,0.0677333 q -0.00212,-7.055e-4 -0.016933,-7.055e-4 l -0.015522,0 0,0.1933222 0,0.1933223 0.015522,0 q 0.016933,0 0.023283,-0.00353 0.00706,-0.00282 0.011995,-0.00917 0.00212,-0.00282 0.058561,-0.1150056 0.016228,-0.032456 0.018344,-0.0381 0.00282,-0.010583 0.00423,-0.021167 7.055e-4,-0.011289 -0.00141,-0.022578 -0.00141,-0.00564 -0.00282,-0.011289 -0.00212,-0.00564 -0.018344,-0.0381 -0.056444,-0.1114778 -0.058561,-0.1150056 -0.00706,-0.00847 -0.018344,-0.011994 z"
       style="font-size:0.70555562px;font-family:OCRA;text-align:center;text-anchor:middle;fill:#ffffff"
       id="path3406" />
  </g>
  <g
     style="font-size:0.70555562px;font-family:OCRA;text-align:center;text-anchor:middle;fill:#ffffff"
     id="text_1_-11-0-3-7">
    <path
       d="m 10.234465,2.7733327 0.01482,7.055e-4 q 0.0021,7.056e-4 0.0063,0.00212 0.0099,0.00494 0.01482,0.015522 0.0021,0.00353 0.06844,0.2321278 0.06703,0.2286001 0.06773,0.2307167 l 0,0.00635 q 0,0.021872 -0.01975,0.031044 -0.01129,0.00494 -0.02258,0.00141 -0.01623,-0.00423 -0.02258,-0.020461 -7.05e-4,-0.00282 -0.01411,-0.047272 l -0.0127,-0.04445 -0.07479,0 -0.07408,0 -0.01341,0.045156 q -0.0127,0.045156 -0.01411,0.047272 -0.0035,0.00988 -0.0127,0.015522 -0.01905,0.0127 -0.03739,-7.055e-4 -0.01058,-0.00706 -0.01341,-0.019756 l -7.05e-4,-0.014111 7.05e-4,-0.00141 0.134056,-0.4586111 q 0.0021,-0.00564 0.0078,-0.011289 0.0078,-0.00776 0.01764,-0.00988 z m 0.03316,0.24765 q -0.02681,-0.093133 -0.02681,-0.093133 l -0.02752,0.092428 -0.02752,0.093133 0.02752,0 0.05433,0 0.02752,0 -0.02752,-0.092428 z"
       style="font-size:0.70555562px;font-family:OCRA;text-align:center;text-anchor:middle;fill:#ffffff"
       id="path3393" />
    <path
       d="m 10.606182,2.7733327 0.01482,7.055e-4 q 0.0071,0.00141 0.0127,0.00635 0.0078,0.00706 0.01129,0.017639 7.05e-4,0.00282 7.05e-4,0.2017889 7.06e-4,0.1996723 0.0014,0.201789 0.0042,0.015522 0.01835,0.021872 0.0063,0.00353 0.03245,0.00353 0.0049,0 0.04727,0 0.07338,0 0.07973,-0.00353 0.01341,-0.00635 0.01835,-0.021872 7.05e-4,-0.00212 7.05e-4,-0.2010834 0,-0.1996722 7.06e-4,-0.2017889 0.0035,-0.00988 0.01058,-0.016933 0.0049,-0.00494 0.01129,-0.00706 0.0085,-0.00282 0.01693,-0.00141 0.0049,7.055e-4 0.0092,0.00282 0.01341,0.00706 0.01834,0.021872 7.06e-4,0.00282 7.06e-4,0.2017889 l -7.06e-4,0.2053167 q -0.0021,0.017639 -0.0099,0.033161 -0.02187,0.043744 -0.06985,0.054328 -0.0042,7.056e-4 -0.0085,0.00141 -0.0071,7.056e-4 -0.07761,7.056e-4 -0.07126,0 -0.0762,-7.056e-4 -0.04798,-0.00564 -0.07408,-0.045861 -0.0099,-0.014817 -0.01411,-0.033161 -0.0021,-0.010583 -0.0021,-0.1382889 0,0.017639 0,-0.075494 0,-0.2010834 0.0021,-0.2067278 0.0021,-0.00564 0.0078,-0.011289 0.0078,-0.00776 0.01764,-0.00988 z"
       style="font-size:0.70555562px;font-family:OCRA;text-align:center;text-anchor:middle;fill:#ffffff"
       id="path3395" />
    <path
       d="m 11.11125,2.7733327 q 0.0021,-7.056e-4 0.06844,-7.056e-4 l 0.07197,7.056e-4 q 0.04798,0.00564 0.0755,0.047978 0.0021,0.00353 0.0388,0.0762 0.04092,0.081844 0.04445,0.095956 l 0.0014,0.00353 q 0.0042,0.016933 0.0042,0.036689 0,0.019756 -0.0042,0.036689 -0.0042,0.016933 -0.03246,0.071967 -0.0042,0.00917 -0.01341,0.027517 -0.03669,0.072672 -0.03951,0.076906 -0.0085,0.014111 -0.02187,0.0254 -0.02258,0.018344 -0.05151,0.021872 l -0.07479,7.056e-4 -0.06773,0 -0.0028,-0.00141 q -0.02328,-0.00706 -0.02469,-0.032456 0,-0.023989 0.02469,-0.032456 0.0028,-7.056e-4 0.02187,-0.00141 l 0.01976,0 0,-0.1933223 0,-0.1933222 -0.01976,0 q -0.01905,0 -0.02187,-0.00141 -0.01552,-0.00423 -0.02187,-0.018344 -0.0042,-0.00847 -0.0028,-0.018344 7.05e-4,-0.00494 0.0028,-0.00988 0.0071,-0.016228 0.0254,-0.01905 z m 0.137583,0.067733 q -0.0021,-7.055e-4 -0.01693,-7.055e-4 l -0.01552,0 0,0.1933222 0,0.1933223 0.01552,0 q 0.01693,0 0.02328,-0.00353 0.0071,-0.00282 0.01199,-0.00917 0.0021,-0.00282 0.05856,-0.1150056 0.01623,-0.032456 0.01834,-0.0381 0.0028,-0.010583 0.0042,-0.021167 7.05e-4,-0.011289 -0.0014,-0.022578 -0.0014,-0.00564 -0.0028,-0.011289 -0.0021,-0.00564 -0.01834,-0.0381 -0.05645,-0.1114777 -0.05856,-0.1150055 -0.0071,-0.00847 -0.01835,-0.011995 z"
       style="font-size:0.70555562px;font-family:OCRA;text-align:center;text-anchor:middle;fill:#ffffff"
       id="path3397" />
    <path
       d="m 11.615612,2.7733327 q 0.0021,-7.056e-4 0.137583,-7.056e-4 l 0.138995,7.056e-4 q 0.02187,0.00423 0.02681,0.0254 7.05e-4,0.00353 7.05e-4,0.00776 0,0.021872 -0.01975,0.031044 -0.0035,0.00141 -0.0078,0.00212 -0.0028,7.056e-4 -0.05362,7.056e-4 l -0.0515,0 0,0.1933222 0,0.1933223 0.0515,0 q 0.05362,0 0.05997,0.00212 0.0127,0.00494 0.01834,0.017639 0.0092,0.019756 -0.0056,0.036689 l -0.0085,0.00706 -0.01129,0.00353 -0.1397,7.056e-4 -0.136878,0 -0.0028,-0.00141 q -0.02328,-0.00706 -0.02469,-0.032456 0,-0.023283 0.02469,-0.032456 l 0.0028,-7.056e-4 0.05221,-7.055e-4 0.05292,0 0,-0.1933223 0,-0.1933222 -0.05292,0 -0.05221,0 -0.0028,-0.00141 q -0.01552,-0.00423 -0.02187,-0.018344 -0.0042,-0.00847 -0.0028,-0.018344 7.05e-4,-0.00494 0.0028,-0.00988 0.0071,-0.016228 0.0254,-0.01905 z"
       style="font-size:0.70555562px;font-family:OCRA;text-align:center;text-anchor:middle;fill:#ffffff"
       id="path3399" />
    <path
       d="m 12.247679,2.7733327 q 0.0035,-7.056e-4 0.0099,-7.056e-4 0.03034,0 0.05503,0.019756 0.0078,0.00564 0.01341,0.013405 0.0042,0.00494 0.0071,0.00988 0.0028,0.00423 0.04092,0.081139 0.0381,0.0762 0.04092,0.08255 0.0127,0.035278 0.0092,0.071261 -0.0021,0.013406 -0.0056,0.026106 -0.0035,0.0127 -0.04445,0.094545 -0.0381,0.0762 -0.04092,0.080433 -0.0049,0.00847 -0.012,0.016228 -0.03246,0.033161 -0.07761,0.0254 -0.0127,-0.00212 -0.02399,-0.00776 -0.02258,-0.010583 -0.03598,-0.032456 l -0.08114,-0.1622778 q -0.0071,-0.018344 -0.0099,-0.039511 l 0,-0.033161 q 0,-7.056e-4 0,-0.00212 0.0028,-0.021167 0.0099,-0.039511 l 0.08114,-0.1622778 q 0.01693,-0.027517 0.04727,-0.036689 0.0078,-0.00282 0.01693,-0.00423 z m 0.01482,0.067733 q -0.0071,-0.00141 -0.0127,0.00141 -0.0035,0.00141 -0.0063,0.00423 -0.0028,0.00212 -0.03951,0.076906 -0.03739,0.074789 -0.03881,0.079022 -0.0035,0.00776 -0.0049,0.017639 l 0,0.026105 0,7.056e-4 q 0.0014,0.00988 0.0049,0.017639 0.0014,0.00423 0.03881,0.079022 0.03669,0.074789 0.03951,0.077611 0.0042,0.00423 0.0099,0.00494 0.0064,0.00212 0.0127,-7.056e-4 0.0035,-0.00141 0.0063,-0.00423 0.0021,-0.00282 0.02328,-0.045156 l 0.0381,-0.0762 q 0.01693,-0.033161 0.01905,-0.038806 0.0049,-0.015522 0.0042,-0.031045 0,-0.00141 0,-0.00282 -0.0014,-0.010583 -0.0042,-0.021167 -0.0021,-0.00564 -0.01905,-0.038806 l -0.0381,-0.0762 q -0.02117,-0.042333 -0.02328,-0.04445 -0.0042,-0.00423 -0.0099,-0.00564 z"
       style="font-size:0.70555562px;font-family:OCRA;text-align:center;text-anchor:middle;fill:#ffffff"
       id="path3401" />
  </g>
  <g
     style="font-size:0.70555562px;font-family:OCRA;text-align:center;text-anchor:middle;fill:#ffffff"
     id="text_1_-1-8-5-3-3">
    <path
       d="m 10.790253,0.95616291 q 0.0056,-7.0556e-4 0.06068,-7.0556e-4 l 0.05786,7.0556e-4 q 0.02187,0.004233 0.02681,0.0254 7.05e-4,0.003528 7.05e-4,0.007761 0,0.0211667 -0.02046,0.0310445 -0.0056,0.00282 -0.05009,0.00282 l -0.0127,0 q -0.05856,0 -0.06491,0.00353 -0.0064,0.00282 -0.01905,0.01905 -0.0064,0.00847 -0.0374,0.047978 -0.04657,0.059972 -0.04868,0.062794 -0.0071,0.010583 -0.01058,0.0254 l -7.05e-4,0.00423 0,0.098072 q 0,0.097367 7.05e-4,0.1001889 0.0042,0.015522 0.01835,0.021872 0.0063,0.00353 0.03245,0.00353 0.0049,0 0.04727,0 0.07338,0 0.07973,-0.00353 0.01058,-0.00494 0.01552,-0.015522 0.0035,-0.00635 0.0035,-0.032456 0,0.00706 0,-0.013405 l 0,-0.0381 -0.03457,0 q -0.03669,0 -0.04304,-0.00212 -0.0064,-0.00212 -0.01199,-0.00776 -0.0056,-0.00564 -0.0078,-0.0127 -0.0028,-0.00706 -0.0021,-0.014111 7.06e-4,-0.00353 0.0014,-0.00776 0.0028,-0.00706 0.0085,-0.0127 0.0056,-0.00564 0.01199,-0.00776 0.0063,-0.00212 0.07691,-0.00212 l 0.06844,0 0,0.071261 q 0,0.070556 -7.06e-4,0.077611 -0.0021,0.016933 -0.0099,0.032456 -0.02187,0.043744 -0.06985,0.054328 -0.0042,7.056e-4 -0.0085,0.00141 -0.0071,7.055e-4 -0.07761,7.055e-4 -0.0762,0 -0.08678,-0.00212 -0.01693,-0.00423 -0.03175,-0.0127 -0.04163,-0.026105 -0.04727,-0.075494 l -7.05e-4,-0.2046111 7.05e-4,-7.056e-4 q 0.0028,-0.034572 0.02187,-0.062089 0.0035,-0.00494 0.0508,-0.067028 0.04798,-0.0613833 0.05292,-0.0656166 0.02469,-0.0261056 0.05997,-0.0310444 z"
       style="font-size:0.70555562px;font-family:OCRA;text-align:center;text-anchor:middle;fill:#ffffff"
       id="path3386" />
    <path
       d="m 11.108349,1.2009907 0,-0.24553335 0.04445,0 0.04445,7.0556e-4 0.0042,0.009878 0.08819,0.20108332 0.08396,0.1905001 0,-0.1869723 q 0,-0.18697223 7.05e-4,-0.18908889 0.0035,-0.009878 0.01058,-0.0169333 0.0049,-0.004939 0.01129,-0.007056 0.0085,-0.002822 0.01693,-0.001411 0.0049,7.0555e-4 0.0092,0.002822 0.01341,0.007056 0.01834,0.0218722 7.06e-4,0.002822 7.06e-4,0.24976665 l 0,0.2469445 -0.04445,0 -0.04516,0 -0.08819,-0.2010833 -0.08749,-0.2003778 -7.06e-4,0.1869722 q 0,0.1869722 -7.05e-4,0.1890889 -0.0042,0.015522 -0.01764,0.021872 -0.0099,0.00423 -0.01905,0.00353 -0.0035,-7.055e-4 -0.0078,-0.00212 -0.0064,-0.00212 -0.012,-0.00776 -0.0056,-0.00635 -0.0078,-0.011994 -0.0021,-0.00635 -0.0021,-0.1213556 0,-0.0127 0,-0.13335 z"
       style="font-size:0.70555562px;font-family:OCRA;text-align:center;text-anchor:middle;fill:#ffffff"
       id="path3388" />
    <path
       d="m 11.640933,0.95616291 q 0.0021,-7.0556e-4 0.06844,-7.0556e-4 l 0.07197,7.0556e-4 q 0.04798,0.005644 0.0755,0.0479778 0.0021,0.00353 0.0388,0.0762 0.04092,0.081844 0.04445,0.095956 l 0.0014,0.00353 q 0.0042,0.016933 0.0042,0.036689 0,0.019756 -0.0042,0.036689 -0.0042,0.016933 -0.03246,0.071967 -0.0042,0.00917 -0.01341,0.027517 -0.03669,0.072672 -0.03951,0.076906 -0.0085,0.014111 -0.02187,0.0254 -0.02258,0.018344 -0.05151,0.021872 l -0.07479,7.055e-4 -0.06773,0 -0.0028,-0.00141 q -0.02328,-0.00706 -0.02469,-0.032456 0,-0.023989 0.02469,-0.032455 0.0028,-7.056e-4 0.02187,-0.00141 l 0.01976,0 0,-0.1933223 0,-0.1933222 -0.01976,0 q -0.01905,0 -0.02187,-0.00141 -0.01552,-0.00423 -0.02187,-0.018344 -0.0042,-0.008467 -0.0028,-0.0183444 7.05e-4,-0.004939 0.0028,-0.009878 0.0071,-0.0162278 0.0254,-0.01905 z m 0.137583,0.0677333 q -0.0021,-7.055e-4 -0.01693,-7.055e-4 l -0.01552,0 0,0.1933222 0,0.1933223 0.01552,0 q 0.01693,0 0.02328,-0.00353 0.0071,-0.00282 0.012,-0.00917 0.0021,-0.00282 0.05856,-0.1150056 0.01623,-0.032456 0.01834,-0.0381 0.0028,-0.010583 0.0042,-0.021167 7.05e-4,-0.011289 -0.0014,-0.022578 -0.0014,-0.00564 -0.0028,-0.011289 -0.0021,-0.00564 -0.01834,-0.0381 -0.05645,-0.1114778 -0.05856,-0.1150056 -0.0071,-0.00847 -0.01835,-0.011994 z"
       style="font-size:0.70555562px;font-family:OCRA;text-align:center;text-anchor:middle;fill:#ffffff"
       id="path3390" />
  </g>
</svg>
